<svg width="24" height="24" viewBox="0 0 24 24" fill="none" xmlns="http://www.w3.org/2000/svg">
<mask id="mask0_29_1932" style="mask-type:alpha" maskUnits="userSpaceOnUse" x="0" y="0" width="24" height="24">
<rect width="24" height="24" fill="#D9D9D9"/>
</mask>
<g mask="url(#mask0_29_1932)">
<path d="M2.74414 9.74527C2.74414 8.81544 3.01931 7.96777 3.56964 7.20227C4.12014 6.43661 4.80331 5.92986 5.61914 5.68202C5.98614 4.25636 6.75797 3.08819 7.93464 2.17752C9.11131 1.26686 10.4663 0.811523 11.9996 0.811523C13.5518 0.811523 14.9045 1.26211 16.0576 2.16327C17.2106 3.06461 17.9848 4.22811 18.3801 5.65377C19.196 5.90161 19.8791 6.41536 20.4296 7.19502C20.98 7.97486 21.2551 8.82494 21.2551 9.74527C21.2551 11.0278 20.7959 12.0777 19.8774 12.895C18.9589 13.7122 17.9004 14.0927 16.7019 14.0365L13.1306 20.8865C13.0131 21.1177 12.8534 21.2894 12.6514 21.4018C12.4494 21.5141 12.2353 21.5703 12.0091 21.5703C11.783 21.5703 11.57 21.5142 11.3701 21.402C11.1703 21.2899 11.0098 21.118 10.8886 20.8865L7.31914 14.0365C6.07381 14.0927 4.99997 13.7169 4.09764 12.909C3.19531 12.1012 2.74414 11.0466 2.74414 9.74527ZM7.07464 11.5365C7.30364 11.5365 7.52714 11.4991 7.74514 11.4243C7.96314 11.3494 8.16031 11.2259 8.33664 11.0538L9.04214 10.32L9.70939 10.8473C10.0217 11.0901 10.3865 11.2657 10.8036 11.374C11.221 11.4824 11.6238 11.5365 12.0121 11.5365C12.4005 11.5365 12.7991 11.4824 13.2081 11.374C13.617 11.2657 13.9776 11.0901 14.2899 10.8473L14.9571 10.32L15.6626 11.0538C15.8416 11.2293 16.0393 11.3536 16.2556 11.4268C16.4718 11.4999 16.6935 11.5365 16.9206 11.5365C17.4271 11.5365 17.8554 11.3645 18.2054 11.0205C18.5552 10.6767 18.7301 10.2522 18.7301 9.74702C18.7301 9.28786 18.5854 8.88977 18.2959 8.55277C18.0064 8.21577 17.6399 8.01977 17.1964 7.96477L16.1214 7.86477L16.0996 7.22027C16.0456 6.13511 15.6263 5.21652 14.8416 4.46452C14.0571 3.71252 13.1098 3.33652 11.9996 3.33652C10.8895 3.33652 9.94214 3.71252 9.15764 4.46452C8.37297 5.21652 7.95481 6.13636 7.90314 7.22402L7.87789 7.86477L6.80914 8.01477C6.35097 8.09594 5.97981 8.29211 5.69564 8.60327C5.41131 8.91428 5.26914 9.29752 5.26914 9.75302C5.26914 10.2542 5.44406 10.6767 5.79389 11.0205C6.14389 11.3645 6.57081 11.5365 7.07464 11.5365ZM12.0089 17.9028L14.2126 13.6843L14.1876 13.6593C13.863 13.7934 13.5191 13.894 13.1561 13.961C12.7931 14.028 12.4118 14.0615 12.0121 14.0615C11.6536 14.0615 11.287 14.028 10.9121 13.961C10.5375 13.894 10.1826 13.7934 9.84739 13.6593L9.82239 13.6843L12.0089 17.9028Z" fill="white"/>
</g>
</svg>
